HIERARCHY
ROOT Hips
{
	OFFSET 0.000000 0.000000 0.000000
	CHANNELS 6 Xposition Yposition Zposition Xrotation Yrotation Zrotation
	JOINT Chest
	{
		OFFSET 0.000000 9.585900 0.002600
		CHANNELS 3 Xrotation Yrotation Zrotation
		JOINT Chest2
		{
			OFFSET 0.000000 9.601200 -0.005300
			CHANNELS 3 Xrotation Yrotation Zrotation
			JOINT Chest3
			{
				OFFSET 0.000000 9.561800 0.000000
				CHANNELS 3 Xrotation Yrotation Zrotation
				JOINT Chest4
				{
					OFFSET 0.000000 9.552100 0.000000
					CHANNELS 3 Xrotation Yrotation Zrotation
					JOINT Neck
					{
						OFFSET 0.000000 14.453000 0.000000
						CHANNELS 3 Xrotation Yrotation Zrotation
						JOINT Head
						{
							OFFSET 0.000000 8.936500 -0.011300
							CHANNELS 3 Xrotation Yrotation Zrotation
							End Site
							{
								OFFSET 0.000000 0.000000 0.000000
							}
						}
					}
					JOINT RightCollar
					{
						OFFSET -2.921100 9.558500 0.000000
						CHANNELS 3 Xrotation Yrotation Zrotation
						JOINT RightShoulder
						{
							OFFSET -13.519700 0.000000 0.000000
							CHANNELS 3 Xrotation Yrotation Zrotation
							JOINT RightElbow
							{
								OFFSET 0.000000 -29.696600 0.000000
								CHANNELS 3 Xrotation Yrotation Zrotation
								JOINT RightWrist
								{
									OFFSET 0.000000 -24.004700 0.000000
									CHANNELS 3 Xrotation Yrotation Zrotation
									End Site
									{
										OFFSET 0.000000 0.000000 0.000000
									}
								}
							}
						}
					}
					JOINT LeftCollar
					{
						OFFSET 2.921100 9.558500 0.000000
						CHANNELS 3 Xrotation Yrotation Zrotation
						JOINT LeftShoulder
						{
							OFFSET 13.519700 0.000000 0.000000
							CHANNELS 3 Xrotation Yrotation Zrotation
							JOINT LeftElbow
							{
								OFFSET 0.000000 -29.696600 0.000000
								CHANNELS 3 Xrotation Yrotation Zrotation
								JOINT LeftWrist
								{
									OFFSET 0.000000 -24.004700 0.000000
									CHANNELS 3 Xrotation Yrotation Zrotation
									End Site
									{
										OFFSET 0.000000 0.000000 0.000000
									}
								}
							}
						}
					}
				}
			}
		}
	}
	JOINT RightHip
	{
		OFFSET -7.771700 -0.012900 -0.001300
		CHANNELS 3 Xrotation Yrotation Zrotation
		JOINT RightKnee
		{
			OFFSET 0.000000 -40.869801 0.001200
			CHANNELS 3 Xrotation Yrotation Zrotation
			JOINT RightAnkle
			{
				OFFSET 0.000000 -39.717899 0.002100
				CHANNELS 3 Xrotation Yrotation Zrotation
				JOINT RightToe
				{
					OFFSET 0.000000 -4.965400 11.033500
					CHANNELS 3 Xrotation Yrotation Zrotation
					End Site
					{
						OFFSET 0.000000 0.000000 0.000000
					}
				}
			}
		}
	}
	JOINT LeftHip
	{
		OFFSET 7.771700 -0.012900 -0.001300
		CHANNELS 3 Xrotation Yrotation Zrotation
		JOINT LeftKnee
		{
			OFFSET 0.000000 -40.869801 0.001200
			CHANNELS 3 Xrotation Yrotation Zrotation
			JOINT LeftAnkle
			{
				OFFSET 0.000000 -39.717899 0.002100
				CHANNELS 3 Xrotation Yrotation Zrotation
				JOINT LeftToe
				{
					OFFSET 0.000000 -4.965400 11.033500
					CHANNELS 3 Xrotation Yrotation Zrotation
					End Site
					{
						OFFSET 0.000000 0.000000 0.000000
					}
				}
			}
		}
	}
}
MOTION
Frames: 14
Frame Time: 0.032
0.0 0.0 0.0 -176.396725 27.272797 179.894246 5.908252 4.321039 1.585805 3.428723 2.730692 -0.210804 1.499681 0.638243 -0.220265 7.636960 -0.949059 -0.003272 16.694106 1.254406 2.104514 -6.328412 3.120066 -1.628827 0.452680 9.478106 2.292953 -36.393119 22.743120 -16.029247 -73.123548 -20.857706 59.460970 -3.073490 0.273814 -25.983127 0.917804 -4.511899 -6.237352 -23.930621 9.673706 5.661548 -68.153178 10.377577 -58.358338 27.534753 -7.809323 0.880595 -64.513322 -2.422693 2.815589 75.110456 -7.717749 -0.879232 -8.552622 -0.031246 0.784745 1.007513 0.650173 -0.011253 -63.896228 11.070662 13.867577 64.466939 20.343715 -0.218497 -22.929550 -24.321301 -5.145183 -0.137349 0.812147 -0.579682
0.0 0.0 0.0 -176.057743 27.194929 -179.883742 6.075883 4.348819 1.306432 3.526944 2.787427 0.044309 1.627025 0.679395 0.097372 7.763038 -0.881642 0.275304 16.803336 1.272868 1.830685 -6.213989 3.150701 -1.909633 0.604623 9.487091 1.941226 -36.168942 22.800128 -16.172355 -73.006301 -20.842433 59.844567 -2.959526 0.384306 -25.682225 0.991876 -4.521517 -5.920939 -23.795112 9.569758 5.796691 -68.212744 10.425705 -58.719655 27.651425 -7.755375 0.621959 -64.472492 -2.354528 2.648673 75.061457 -7.754745 -1.101103 -8.452336 0.029433 0.542164 1.107725 0.688213 -0.266569 -63.843417 10.956646 14.019067 64.527556 20.251999 -0.436758 -22.732895 -24.332112 -4.846173 -0.036676 0.854116 -0.551793
0.0 0.0 0.0 -175.855897 27.318673 -179.886774 6.304620 4.405055 1.229319 3.783253 2.818639 0.022920 1.886899 0.732003 0.124592 8.010067 -0.822531 0.260409 17.071288 1.346615 1.780787 -5.954255 3.155048 -1.890037 0.935052 9.566557 1.968772 -35.905724 22.693669 -16.337322 -72.682994 -20.911715 59.813961 -2.732067 0.275473 -25.701973 1.316407 -4.471502 -5.897055 -23.589108 9.646015 5.829570 -68.018903 10.293589 -58.844566 27.794919 -7.742899 0.586276 -64.320014 -2.397763 2.577483 75.192917 -7.640683 -1.228270 -8.193959 0.034679 0.500639 1.365153 0.698620 -0.283157 -63.654399 10.921261 14.040422 64.693107 20.403853 -0.570053 -22.562458 -24.392728 -4.862377 0.230745 0.863805 -0.583568
0.0 0.0 0.0 -176.057142 27.309231 -179.852678 5.947835 4.293835 1.149491 3.525660 2.707432 -0.052266 1.641563 0.590940 0.032213 7.753213 -0.981484 0.162675 16.815410 1.153408 1.674980 -6.153311 3.095087 -1.932191 0.697031 9.340195 1.875338 -36.057463 22.651735 -16.280857 -72.806757 -21.012350 59.972271 -2.984671 0.314657 -25.751282 1.096079 -4.623753 -5.990355 -23.738389 9.519336 5.642757 -68.111036 10.283439 -59.001080 27.734487 -7.857301 0.523989 -64.535862 -2.356437 2.498456 75.066894 -7.820930 -1.208825 -8.469663 -0.075104 0.392315 1.161225 0.635099 -0.323276 -63.852269 10.928332 13.978196 64.515583 20.153013 -0.608377 -22.737474 -24.361287 -4.859599 0.037570 0.804109 -0.621747
0.0 0.0 0.0 -176.407749 27.200783 -179.978545 5.699056 4.237316 1.341115 3.397624 2.750418 -0.179154 1.491396 0.635151 -0.152382 7.615058 -0.967674 0.029715 16.674290 1.221727 1.915004 -6.380270 3.083054 -1.836458 0.460088 9.445818 2.091627 -36.367107 22.834694 -16.109428 -72.961419 -20.775460 59.816297 -3.073905 0.473688 -25.965079 0.950935 -4.541245 -6.173995 -23.900835 9.530021 5.620205 -68.139852 10.243096 -58.683578 27.641209 -7.896293 0.657784 -64.567889 -2.344763 2.680886 75.048548 -7.858764 -1.025028 -8.599844 0.000909 0.601705 0.945452 0.617179 -0.228099 -63.949497 11.084536 13.907629 64.384580 20.225502 -0.357752 -22.958079 -24.337492 -5.136553 -0.180694 0.782254 -0.676771
0.0 0.0 0.0 -175.944061 27.247961 -179.953519 6.112481 4.301860 1.205098 3.671521 2.757285 -0.021090 1.804333 0.656482 0.074836 7.906513 -0.916555 0.202751 16.968271 1.260542 1.800204 -6.083330 3.064334 -1.876039 0.845662 9.425524 1.967293 -36.026973 22.648436 -16.439920 -72.870236 -20.940242 59.729437 -2.902931 0.258681 -25.786220 1.229079 -4.580546 -5.930106 -23.693925 9.542960 5.874927 -68.104902 10.232149 -58.677267 27.677228 -7.866286 0.661564 -64.352895 -2.407091 2.592392 75.151882 -7.767599 -1.197420 -8.305543 -0.040705 0.522180 1.226920 0.609543 -0.273523 -63.674561 10.905778 13.991730 64.640111 20.294577 -0.572478 -22.684491 -24.389397 -4.917911 0.103343 0.776196 -0.617578
0.0 0.0 0.0 -176.320787 27.265987 -179.955103 5.950468 4.362947 1.532304 3.461086 2.774396 -0.077941 1.539153 0.661668 -0.066154 7.672124 -0.930985 0.113473 16.697980 1.268995 2.048205 -6.274562 3.142960 -1.695686 0.435074 9.446109 2.186789 -36.299303 22.843002 -15.890181 -72.900323 -20.622607 59.924945 -2.926306 0.559502 -25.850944 1.001896 -4.562681 -6.043508 -23.919324 9.448581 5.629533 -68.242947 10.136595 -58.626806 27.750044 -7.793868 0.859310 -64.546148 -2.434707 2.727424 75.080991 -7.647957 -0.952459 -8.543715 -0.017260 0.736927 1.057728 0.693112 -0.052398 -63.949169 11.013707 13.944882 64.444174 20.341331 -0.273732 -22.818380 -24.322382 -5.001977 -0.078686 0.859506 -0.510223
0.0 0.0 0.0 -176.101374 27.272162 -179.804306 6.011623 4.257365 1.226063 3.467475 2.680708 0.142942 1.592194 0.527239 0.251464 7.690783 -1.020064 0.345132 16.738965 1.101980 1.806576 -6.228559 3.039956 -1.790197 0.576327 9.227460 1.996935 -36.306499 22.728470 -16.141653 -72.873474 -20.923586 60.109210 -3.042201 0.419037 -25.655189 1.045021 -4.746170 -5.811839 -23.853176 9.361618 5.842921 -68.227600 10.123875 -58.761224 27.748402 -7.936741 0.738450 -64.613064 -2.438710 2.578906 74.957959 -7.853298 -1.126150 -8.540467 -0.124527 0.509651 1.097122 0.585552 -0.189715 -63.942127 10.809655 14.141752 64.472082 20.156607 -0.543412 -22.836918 -24.473022 -4.722533 -0.051644 0.755578 -0.460151
0.0 0.0 0.0 -176.318451 27.280846 -179.851134 5.903880 4.306889 1.383638 3.445814 2.756105 0.009833 1.530063 0.625269 0.069075 7.663775 -0.955750 0.201447 16.681446 1.209916 1.937965 -6.286574 3.116187 -1.787774 0.444517 9.392368 2.058722 -36.278553 22.863123 -16.047529 -72.719439 -20.793801 60.056146 -2.981147 0.522079 -25.747498 1.008768 -4.598923 -5.954686 -23.981884 9.440646 5.689490 -68.153690 10.251991 -58.644141 27.706230 -7.786555 0.723784 -64.598652 -2.416348 2.653851 75.012320 -7.756041 -1.036124 -8.573484 -0.046102 0.623037 1.042704 0.653644 -0.151608 -64.001468 10.954718 14.041400 64.404838 20.258611 -0.371268 -22.851288 -24.383745 -4.932132 -0.089682 0.822322 -0.518403
0.0 0.0 0.0 -176.196587 27.255984 179.966114 6.060107 4.206236 1.564436 3.599762 2.662960 -0.059701 1.689768 0.524843 -0.038700 7.824986 -1.043442 0.121281 16.824974 1.163126 2.139177 -6.174225 2.976867 -1.594290 0.505547 9.233661 2.321093 -36.367069 22.548936 -15.963738 -72.775515 -20.896134 59.773656 -2.878729 0.424675 -25.856793 1.124565 -4.720561 -6.052896 -23.815331 9.392116 5.686370 -68.074890 10.005207 -58.425138 27.742927 -7.827492 0.929644 -64.405965 -2.637708 2.720253 75.182283 -7.703351 -0.966301 -8.428354 -0.162827 0.825867 1.167410 0.549352 0.028281 -63.792205 10.803083 13.920027 64.586269 20.314229 -0.308610 -22.746690 -24.463217 -5.071431 0.030949 0.710659 -0.488828
0.0 0.0 0.0 -176.117985 27.388481 -179.912456 6.085077 4.405788 1.441559 3.640219 2.801409 -0.119797 1.735329 0.672034 -0.092520 7.841949 -0.880151 0.067483 16.892709 1.289262 1.941985 -6.051596 3.180593 -1.723616 0.673298 9.421763 2.001386 -36.095487 22.918235 -16.122873 -72.809256 -20.744866 59.820033 -2.748707 0.566746 -25.903885 1.171675 -4.565664 -6.113902 -23.838747 9.509125 5.590526 -68.091413 10.099929 -58.583257 27.936275 -7.760433 0.878350 -64.451502 -2.428922 2.605088 75.179879 -7.521023 -1.080441 -8.372132 -0.039392 0.636832 1.282790 0.745388 -0.090619 -63.830495 11.008235 13.864164 64.552692 20.424738 -0.435212 -22.620637 -24.303924 -4.990648 0.155030 0.910226 -0.539119
0.0 0.0 0.0 -176.231393 27.419675 -179.859686 5.904388 4.196893 1.226703 3.565867 2.692660 -0.022848 1.667255 0.564298 0.076633 7.781424 -0.977997 0.150816 16.820108 1.137146 1.848078 -6.176152 3.023612 -1.783479 0.671537 9.306938 2.007531 -36.165333 22.858724 -16.205455 -72.513639 -20.908396 60.215610 -2.911394 0.504887 -25.752795 1.201619 -4.683868 -5.981329 -23.859335 9.401962 5.616472 -67.996336 10.097015 -58.802560 27.837298 -7.902825 0.719353 -64.554167 -2.463456 2.574160 75.053370 -7.813377 -1.149919 -8.461613 -0.138901 0.543728 1.158590 0.568483 -0.195630 -63.911487 10.890102 14.046131 64.468086 20.242533 -0.530782 -22.807967 -24.484043 -4.957371 0.035787 0.738216 -0.568531
0.0 0.0 0.0 -176.512770 27.311630 -179.891951 5.613975 4.080451 1.403198 3.277508 2.558846 -0.139394 1.335611 0.399547 -0.128921 7.479484 -1.138899 0.010434 16.478866 0.950415 1.917791 -6.430753 2.989522 -1.718294 0.211675 9.070694 1.964058 -36.547946 22.870443 -16.069167 -72.887394 -20.902766 59.880180 -3.254868 0.495274 -25.836642 0.827385 -4.828754 -6.151470 -24.191953 9.274534 5.511668 -68.235926 10.165322 -58.388057 27.646955 -7.955693 0.849386 -64.722914 -2.506433 2.624366 74.970738 -7.937239 -0.953047 -8.777351 -0.259881 0.608321 0.916156 0.528631 -0.093274 -64.150708 10.866898 13.886643 64.295658 19.988957 -0.339544 -22.963332 -24.418094 -5.073214 -0.212950 0.694368 -0.555660
0.0 0.0 0.0 -176.150483 27.370971 -179.698917 5.833206 4.251244 1.093079 3.532142 2.731973 -0.075147 1.624570 0.606015 -0.007563 7.769567 -0.899979 0.086043 16.767988 1.133322 1.607680 -6.147321 3.145780 -1.980118 0.621185 9.305168 1.658450 -36.051115 23.064898 -16.305250 -72.609576 -20.826772 60.144378 -2.969557 0.662674 -25.623462 1.068373 -4.637382 -6.065923 -23.934125 9.418901 5.456269 -67.989103 10.176557 -58.854934 27.874419 -7.821780 0.595886 -64.574173 -2.314090 2.419975 75.059776 -7.762312 -1.250292 -8.516580 -0.087965 0.327632 1.184382 0.694260 -0.359970 -63.989392 10.954806 13.921911 64.423642 20.117211 -0.638234 -22.650878 -24.306738 -4.924381 0.086154 0.864287 -0.636404
